<svg xmlns="http://www.w3.org/2000/svg" fill="rgb(12, 34, 78)" xmlns:xlink="http://www.w3.org/1999/xlink" version="1.1" viewBox="39.61430687473251 70.69115023081845 257.7642331252675 69.00640143053879" style="width: 100%; height: 100%; z-index: 5;"><g><g fill="rgb(12, 34, 78)" fill-rule="nonzero" transform="translate(39.61430687473251 70.69115023081845) scale(0.768745143037972)"><svg xmlns="http://www.w3.org/2000/svg" fill="rgb(12, 34, 78)" width="81.1334228515625" height="89.7649917602539" viewBox="9.430998802185059 5.21400260925293 81.1334228515625 89.7649917602539"><path d="M32.325 11.214c.065 2.794 1.29 6.251 2.628 8.395 1.288 2.063 4.791 5.628 8.651 7.661 3.859 2.034 8.666 7.127 13.507 11.035 3.864 3.119 8.57 7.111 11.541 8.455 2.972 1.343 13.587.261 14.634 1.167 1.884 1.632 1.556 9.019-.11 15.251-1.555 5.818-5.903 10.513-6.425 16.802-.399 4.828-2.705 4.883-10.926 4.883h-1.357c-3.82 0-8.236 2.931-12.916 3.62-2.725.399-5.796.495-9.728.495-3.576 0-7.863-.079-13.255-.079-3.56 0-4.71-1.827-4.71-4.477h8.417a3.504 3.504 0 0 0 0-7.009H21.709c-1.677 0-2.882-1.391-2.882-2.887 0-1.144.357-1.364.771-1.779h16.458a3.503 3.503 0 0 0 3.505-3.502 3.506 3.506 0 0 0-3.505-3.507h-14.34c-3.204 0-4.84-1.833-4.84-4.041 0-2.21 1.175-3.683 1.175-3.683h19.064a3.505 3.505 0 0 0 0-7.009H19.176c-2.088 0-3.744-1.381-3.744-3.518s1.531-3.526 3.744-3.526H32.29c5.606 0 7.718-2.923 5.66-5.483-4.427-4.743-10.843-12.619-10.979-18.706-.147-6.511 2.594-7.829 5.354-8.558m-.001-6c-.512 0-1.027.065-1.533.199-6.691 1.769-9.995 6.646-9.82 14.495.115 5.121 2.992 11.179 8.564 18.055h-10.36c-5.555 0-9.744 4.095-9.744 9.526 0 3 1.353 5.636 3.508 7.367-.743 1.118-2.064 3.565-2.064 6.842 0 3.192 1.373 5.905 3.649 7.702-.867 1.075-1.699 2.67-1.699 5.127 0 3.624 2.179 6.749 5.296 8.13a5.99 5.99 0 0 0-.264 1.766c0 6.364 4.204 10.477 10.71 10.477 2.944 0 5.587.024 7.92.045 1.947.018 3.713.034 5.335.034 4.077 0 7.439-.096 10.598-.559 2.82-.415 5.344-1.373 7.569-2.218 1.654-.627 3.529-1.339 4.477-1.339h1.357c4.689 0 7.788 0 10.493-1.01 3.858-1.44 6.016-4.595 6.412-9.378.204-2.465 1.425-4.855 2.838-7.623 1.212-2.374 2.586-5.064 3.404-8.125.945-3.536 1.524-7.467 1.588-10.783.1-5.135-.964-8.488-3.346-10.552-2.159-1.87-4.646-1.875-9.601-1.883-1.926-.003-5.465-.01-6.642-.288-1.92-.939-5.715-4.027-8.506-6.297-.54-.439-1.07-.871-1.587-1.288-1.6-1.291-3.262-2.781-4.87-4.222-3.324-2.98-6.465-5.795-9.608-7.452-2.884-1.519-5.631-4.364-6.359-5.53-.914-1.463-1.685-3.866-1.719-5.357a6.002 6.002 0 0 0-5.996-5.861z"></path></svg></g><g fill="rgb(12, 34, 78)" transform="translate(105.176 134.028) scale(1)"><path fill-rule="nonzero" d="M15.768000-21.024000C15.984000-24.336000 18.216000-26.784000 21.672000-26.784000C25.632000-26.784000 27.504000-24.120000 27.504000-20.592000L27.504000 0L38.448000 0L38.448000-22.464000C38.448000-30.312000 34.272000-36.720000 24.912000-36.720000C21.744000-36.720000 18.000000-35.712000 15.768000-33.480000L15.768000-52.128000L4.824000-52.128000L4.824000 0L15.768000 0ZM56.714108 0L56.714108-35.784000L45.770108-35.784000L45.770108 0ZM44.834108-46.728000C44.834108-43.200000 47.714108-40.320000 51.170108-40.320000C54.770108-40.320000 57.650108-43.200000 57.650108-46.728000C57.650108-50.256000 54.770108-53.136000 51.170108-53.136000C47.714108-53.136000 44.834108-50.256000 44.834108-46.728000ZM77.500216-46.224000L67.708216-46.224000L67.708216-41.616000C67.708216-38.304000 65.908216-35.784000 62.164216-35.784000L60.364216-35.784000L60.364216-26.208000L66.700216-26.208000L66.700216-10.872000C66.700216-3.744000 71.236216 0.648000 78.652216 0.648000C82.108216 0.648000 83.908216-0.144000 84.340216-0.360000L84.340216-9.432000C83.692216-9.288000 82.612216-9.072000 81.460216-9.072000C79.084216-9.072000 77.500216-9.864000 77.500216-12.816000L77.500216-26.208000L84.484216-26.208000L84.484216-35.784000L77.500216-35.784000ZM106.494324-26.784000C110.742324-26.784000 112.902324-24.192000 113.694324-21.456000L123.486324-24.408000C121.902324-30.816000 116.142324-36.864000 106.278324-36.864000C95.766324-36.864000 87.414324-29.016000 87.414324-17.856000C87.414324-6.768000 95.982324 1.080000 106.638324 1.080000C116.214324 1.080000 122.118324-5.112000 123.702324-11.376000L114.054324-14.328000C113.262324-11.664000 110.886324-9.000000 106.638324-9.000000C102.102324-9.000000 98.286324-12.168000 98.286324-17.856000C98.286324-23.616000 101.958324-26.784000 106.494324-26.784000ZM139.448432-21.024000C139.664432-24.336000 141.896432-26.784000 145.352432-26.784000C149.312432-26.784000 151.184432-24.120000 151.184432-20.592000L151.184432 0L162.128432 0L162.128432-22.464000C162.128432-30.312000 157.952432-36.720000 148.592432-36.720000C145.424432-36.720000 141.680432-35.712000 139.448432-33.480000L139.448432-52.128000L128.504432-52.128000L128.504432 0L139.448432 0ZM192.202540-35.784000C191.482540-36.000000 190.402540-36.144000 189.322540-36.144000C186.442540-36.144000 181.906540-34.992000 180.034540-30.960000L180.034540-35.784000L169.450540-35.784000L169.450540 0L180.394540 0L180.394540-15.624000C180.394540-22.752000 184.354540-25.344000 188.746540-25.344000C189.826540-25.344000 190.978540-25.272000 192.202540-24.984000Z"></path></g></g></svg>